<svg width="14" height="14" viewBox="0 0 14 14" fill="none" xmlns="http://www.w3.org/2000/svg">
<path d="M5.60368 0.139545C2.8728 0.676887 0.673767 2.88668 0.138987 5.62736C-0.668736 9.76009 2.14514 13.4353 5.95728 13.9896C6.51281 14.0743 7.01427 13.63 7.01427 13.066L7.01428 13.0465C7.01428 12.5849 6.67997 12.1994 6.22993 12.1302C3.76498 11.7495 1.86987 9.60396 1.86987 7.02078C1.86987 4.00263 4.45931 1.5799 7.52159 1.87614C10.1967 2.13627 12.1563 4.55259 12.1563 7.24956V7.72355C12.1563 8.37147 11.6321 8.89825 10.9874 8.89825C10.3428 8.89825 9.81822 8.37147 9.81822 7.72355V4.20091C9.81822 3.94142 9.60895 3.73103 9.35036 3.73103L8.41581 3.73113C8.20251 3.73113 8.03007 3.87755 7.97396 4.07372C7.24777 3.71735 6.38891 3.59328 5.45903 3.92395C4.32664 4.32667 3.46836 5.35853 3.30471 6.55318C3.02759 8.5773 4.58497 10.3075 6.54554 10.3075C7.3182 10.3075 8.01925 10.0276 8.57917 9.57778C9.28052 10.4958 10.4854 11.0059 11.7762 10.6774C13.1257 10.3634 14.0257 9.03767 13.9994 7.66205V7.04903C13.9994 2.67286 10.0865 -0.742202 5.60368 0.139545ZM6.51836 8.45691C5.74483 8.45691 5.11566 7.82454 5.11566 7.04756C5.11566 6.27059 5.74483 5.63821 6.51836 5.63821C7.29189 5.63821 7.92106 6.27059 7.92106 7.04756C7.92106 7.82454 7.31907 8.45691 6.51836 8.45691Z" fill="white"/>
</svg>
